Coordinates
version=1
nRows=12
nColumns=24
inDegrees=yes

Units are S.I. units (second, meters, Newtons, ...)
Angles are in degrees.

endheader
time	pelvis_tilt	pelvis_list	pelvis_rotation	pelvis_tx	pelvis_ty	pelvis_tz	hip_flexion_r	hip_adduction_r	hip_rotation_r	knee_angle_r	ankle_angle_r	subtalar_angle_r	mtp_angle_r	hip_flexion_l	hip_adduction_l	hip_rotation_l	knee_angle_l	ankle_angle_l	subtalar_angle_l	mtp_angle_l	lumbar_extension	lumbar_bending	lumbar_rotation
      0.43300000	     -2.49546501	      1.22006287	      2.27957119	     -0.80906460	      1.03898264	      0.29311194	     29.65837960	     -1.65331851	     -5.06243340	     -3.98355014	     10.04361035	     -3.13795033	      9.25781841	    -16.25468516	      2.41441923	      5.55880858	     -5.25018809	     18.62395049	      6.56621635	      4.37886994	    -13.53130493	      0.38813626	     -4.41599106
      0.43716667	     -2.47849978	      1.25409497	      2.43516722	     -0.80302210	      1.03798244	      0.29315199	     29.56544026	     -1.69307771	     -4.87583965	     -4.34096660	     10.05479850	     -3.22581806	      9.25631728	    -16.41406211	      2.38997519	      5.66979647	     -5.69048092	     18.70860060	      6.61919149	      4.40183583	    -13.52602460	      0.47914634	     -4.44976462
      0.44133333	     -2.48357042	      1.27224362	      2.58957589	     -0.79689889	      1.03699021	      0.29321833	     29.45340795	     -1.70935380	     -4.59456598	     -4.64234183	      9.92979283	     -3.48718628	      9.25396836	    -16.50454787	      2.34046126	      5.61178212	     -6.22760320	     18.81802929	      6.95914663	      4.50446007	    -13.49648870	      0.61612685	     -4.61238506
      0.44550000	     -2.47656208	      1.28490037	      2.74659489	     -0.79073924	      1.03605733	      0.29327746	     29.32785831	     -1.72378035	     -4.39096676	     -4.97310386	      9.80883305	     -3.65864922	      9.26268794	    -16.60068194	      2.28322471	      5.57976490	     -6.78584773	     18.91116501	      7.25125675	      4.65360447	    -13.47261421	      0.74545755	     -4.65708700
      0.44966667	     -2.47215144	      1.30104099	      2.90225020	     -0.78455466	      1.03517175	      0.29334900	     29.19627896	     -1.74021023	     -4.20260687	     -5.30711528	      9.64447158	     -3.82968615	      9.28255793	    -16.67880272	      2.22854716	      5.56648848	     -7.37264076	     18.96762418	      7.52112082	      4.83119654	    -13.44211932	      0.87586134	     -4.72731372
      0.45383333	     -2.47071138	      1.30516013	      3.05804215	     -0.77831157	      1.03433693	      0.29342310	     29.05528447	     -1.74491336	     -4.04523480	     -5.63702578	      9.42331522	     -4.00873166	      9.31555686	    -16.73317995	      2.15755238	      5.50795761	     -8.00237662	     19.00497549	      7.83751396	      5.05911899	    -13.39802892	      1.02225361	     -4.78626529
      0.45800000	     -2.47832301	      1.30784907	      3.20766701	     -0.77204089	      1.03354129	      0.29351048	     28.92257863	     -1.74631362	     -3.91298649	     -5.97701313	      9.14048743	     -4.19862616	      9.36383685	    -16.75680114	      2.08489409	      5.43416842	     -8.67573184	     19.01971309	      8.17485271	      5.34232151	    -13.34956702	      1.17487132	     -4.83649017
      0.46216667	     -2.46831017	      1.30511775	      3.35480640	     -0.76575397	      1.03283939	      0.29361095	     28.76051573	     -1.74050182	     -3.79813552	     -6.30283510	      8.79878839	     -4.40200613	      9.43549810	    -16.77607684	      2.00179292	      5.32542993	     -9.39267852	     18.99947233	      8.54860670	      5.72318952	    -13.31752821	      1.32859777	     -4.88025980
      0.46633333	     -2.46834862	      1.30588603	      3.52001491	     -0.75940793	      1.03221930	      0.29365457	     28.61237989	     -1.75699121	     -3.81715745	     -6.65323304	      8.44141376	     -4.45212805	      9.44753366	    -16.79781294	      1.92970758	      5.40436854	    -10.07993097	     18.87740955	      8.63009697	      5.81271124	    -13.25601183	      1.46444544	     -4.85858505
      0.47050000	     -2.46825092	      1.26430389	      3.65491015	     -0.75305456	      1.03162826	      0.29380022	     28.43391394	     -1.70349558	     -3.68320151	     -6.93074103	      7.96987685	     -4.80959782	      9.52355158	    -16.72792645	      1.79528981	      5.12904179	    -10.95289861	     18.84661920	      9.23058444	      6.21214634	    -13.19802779	      1.69096665	     -4.94965962
      0.47466667	     -2.48613189	      1.22247064	      3.79667191	     -0.74665529	      1.03110335	      0.29390627	     28.29150414	     -1.66545318	     -3.67526471	     -7.25240647	      7.48113346	     -5.01620459	      9.61063582	    -16.64030131	      1.66661888	      4.96790039	    -11.81641973	     18.73631196	      9.64760994	      6.67504922	    -13.10738018	      1.89519848	     -4.92337291
      0.47883333	     -2.46879543	      1.19569037	      3.90419041	     -0.74028951	      1.03068715	      0.29406891	     28.15294191	     -1.63407827	     -3.73277502	     -7.64977867	      6.97249545	     -5.11588854	     10.36322268	    -16.57794923	      1.55690014	      4.77415788	    -12.68619471	     18.47687699	     10.03953423	     10.50516686	    -13.09321061	      2.06353154	     -4.74389193
